<svg version="1.0" xmlns="http://www.w3.org/2000/svg" width="1173.333" height="1173.333" viewBox="0 0 880 880"><path d="M849.9 10.7c-.4 3.2-.7 6.6-1 11.5-.2 3.2-.6 5.8-.9 5.8-.3 0-.5 1.5-.5 3.2-.1 4.1-1.4 14.7-2.6 21.2-.5 2.6-.7 5.2-.4 5.6.3.5.1 1.1-.5 1.5-.6.4-.8 1-.6 1.4.3.3-.1 3.8-.9 7.6-.7 3.9-1.5 8.6-1.8 10.5-.3 1.9-.8 4.8-1.1 6.5-1.6 8.1-1.9 10.1-2.2 11-.1.5-.5 2.8-.9 5s-1 4.4-1.3 5c-.3.5-.7 1.6-.8 2.5-.9 5.6-1.4 8.2-1.8 8.9-.3.4-.8 2.3-1.1 4.2-.3 1.9-1.1 5.2-1.7 7.4-.6 2.2-1.2 4.5-1.4 5.1-.4 2-3.5 12.8-4.1 14.4-.3.8-.7 2.2-.8 3-.3 1.9-9.6 30.2-10.3 31.5-.4.5-.7 1.7-.9 2.5-.1.8-.8 3-1.7 5-.8 1.9-3.1 7.8-5.1 13-2.1 5.2-4.2 10.6-4.8 12-.6 1.4-1.1 2.7-1.1 3-.1.5-1.4 3.3-10.1 21.5-3.2 6.6-5.6 12.2-5.5 12.4.1.2-.2.7-.7 1-.4.3-2.1 3.1-3.8 6.1-5.4 10.2-7 12.9-13.9 24.2-3.8 6.2-7.8 12.3-8.9 13.5-1.1 1.3-1.6 2.3-1.1 2.3s.4.4-.2.8c-.6.4-2.6 2.9-4.4 5.7-19.4 28.7-52.9 63.1-79.5 81.8-4.4 3.1-8.4 6-9 6.5-4.3 3.5-36.8 20.6-40.7 21.4-.7.2-1.5.6-1.8.9-.5.6-17.2 6.7-25.5 9.3-5.4 1.7-25.8 6.7-29 7.1-1.1.1-5.4.8-9.5 1.4-18.7 2.9-38.8 3.8-60.5 2.6-11.7-.6-14.5-.8-24-2-3.3-.4-7.1-.8-8.5-1-3.7-.5-9.9-1.5-15-2.5-5.6-1.2-9.6-2-13.5-2.6-1.6-.3-3.7-.8-4.5-1.1-.8-.3-2.2-.7-3-.8-2.6-.3-21.1-5.3-30-8-4.7-1.5-8.9-2.8-9.5-2.9-.5-.2-1.7-.6-2.5-.9-3.5-1.3-16.6-5.9-17.5-6.1-3.6-.8-33-13-48-19.9-16.1-7.5-49.8-24.9-50.3-26-.2-.4-.8-.7-1.2-.7-.5 0-7.9-4.2-16.5-9.3-8.6-5-16.5-9.6-17.6-10.2-1-.5-1.9-1.3-1.9-1.7 0-.5-.6-.8-1.2-.8-1.2 0-8.6-4.6-11.5-7-.7-.5-2.4-1.5-3.8-2.2-1.4-.6-2.5-1.5-2.5-2 0-.4-.7-.8-1.5-.8s-1.5-.5-1.5-1c0-.6-.6-1-1.3-1-.7 0-2.3-.9-3.5-2-1.2-1.1-2.4-2-2.7-2-.4 0-7.2-4.6-15.2-10.3-8-5.6-15.3-10.7-16.2-11.2-.9-.6-1.8-1.2-2.1-1.5-.3-.3-5.7-4.3-12-9s-11.7-8.7-12-9c-.3-.3-3.2-2.5-6.5-5-5.7-4.2-14.6-11.3-17.1-13.5-.6-.6-2.6-2.1-4.4-3.5-1.8-1.4-6.3-5-9.9-8-3.6-3.1-7.7-6.4-9-7.5-1.3-1.1-3.1-2.7-4-3.5-1-.8-4.4-3.7-7.6-6.4-3.3-2.8-6.7-5.7-7.6-6.5-.8-.9-4.3-4-7.7-7-3.4-3-6.2-6.1-6.2-6.9 0-.7.5-1 1.1-.7.9.6 6.6 2.4 29.4 9.1 2.8.8 5.7 1.6 6.5 1.8 15.9 4.3 75.2 26 91.5 33.6 25.6 11.8 60.5 30.1 61.3 32.2.2.4.8.8 1.3.8 2.9 0 36.6 24.2 50.9 36.6 11.3 9.8 36 35.5 36 37.5 0 .5.4.9.8.9.5 0 3.9 4.1 7.6 9 7.1 9.6 7.9 10.1 22.1 15.3 8.7 3.2 11.5 4 11.5 3.3 0-3.2-9.8-28.5-15.6-40.3-6-12.2-24.4-42.1-27.3-44.3-.3-.3-3.7-4.3-7.5-9-7.3-8.9-29.7-31.7-38-38.5-7-5.8-8.2-6.8-10.3-8.5-7.9-6.5-35.6-26-36.9-26-.3 0-1.8-.8-3.2-1.9-10.2-7.2-42.3-23.5-62.1-31.6-10.5-4.2-32.7-12.2-36.1-13-.8-.2-1.6-.4-1.7-.5-.2-.2-.7-.4-1.3-.5-.5-.1-1.1-.3-1.2-.5-.2-.1-1-.3-1.8-.5-.8-.1-3.5-.9-6-1.6-2.5-.7-4.7-1.3-5-1.4-.3 0-5.7-1.4-12-2.9-6.3-1.6-12.4-3-13.5-3.2-1.1-.1-2-.3-2-.4 0-.1-.9-.3-2-.5s-3.6-.6-5.5-.9c-1.9-.3-4.6-.8-6-1.1-2.4-.5-8.9-1.5-14-2-1.4-.2-2.5-.4-2.5-.5 0-.9-16.7-.5-20.8.4-11.3 2.7-17.3 7.6-21.1 17.4-4.7 12.1-2.2 24.7 6.6 33.4 4.7 4.6 17.1 15.7 22.1 19.8 1.7 1.4 4 3.4 5.1 4.5 1.2 1.1 6.4 5.6 11.6 10 5.2 4.4 10 8.5 10.6 9.1.6.5 3.1 2.6 5.4 4.5 2.3 1.8 4.7 3.9 5.4 4.4 2.7 2.5 22 18.1 23.4 19 .9.5 2.4 1.7 3.2 2.6.8.8 7.4 5.9 14.5 11.4 7.2 5.4 13.5 10.4 14.1 11.2.6.7 1.5 1.3 2 1.3s2 1 3.4 2.3c1.4 1.2 3.5 2.9 4.7 3.7 1.1.8 7.4 5.4 14 10.1 6.5 4.7 15 10.7 18.8 13.4 3.9 2.7 7.1 5.2 7.3 5.7.2.4.9.8 1.5.9.7 0 3.9 2 7.2 4.4 3.3 2.4 7.5 5.2 9.3 6.1 1.7.9 3.2 2 3.2 2.5s.4.9 1 .9c.5 0 4.9 2.6 9.8 5.8 4.9 3.2 13.6 8.7 19.3 12.1 5.7 3.5 13.2 8 16.6 10.1 3.5 2.1 6.3 3.6 6.3 3.3 0-.3.8.1 1.8.9.9.8 4.2 2.9 7.2 4.5 3 1.7 7.3 4 9.5 5.3 8.4 4.8 45.5 23 58 28.4 7.2 3.1 13.9 6.1 15 6.6 4.7 2.1 25.7 10 33.5 12.5 4.7 1.6 9.4 3.2 10.5 3.6 2.8 1.1 9.4 3.1 10.8 3.3.7.1 1.7.4 2.2.7.6.3 7.1 2.1 14.5 3.8 7.4 1.8 14.9 3.7 16.6 4.2 1.7.5 4.2.9 5.6.9 1.3 0 2.8.3 3.1.6.4.4 1.9.8 3.4.9 2.6.3 5.5.8 12.3 2 1.4.2 4.8.7 7.5 1 2.8.3 6.6.7 8.5 1 16.7 2.1 54.4 2.2 65.6.1 1-.2 4.4-.7 7.5-1 6.3-.7 5.7-.6 18.9-3.5 8-1.7 12.6-3 27.5-7.5 8.2-2.5 31.5-12.7 31.5-13.8 0-.4.6-.8 1.3-.8 1.6 0 21.4-11.5 24.3-14.1 1.1-1.1 2.3-1.9 2.7-1.9.4 0 1.5-.7 2.4-1.4 1-.8 4.1-3.2 6.9-5.3 9.9-7.4 13.9-10.9 27.4-24.3 11.9-11.8 24.2-25.7 30.5-34.4 1.1-1.5 4.1-5.6 6.6-8.9 2.5-3.4 5.4-7.7 6.4-9.5 1.1-1.7 2.3-3.2 2.7-3.2.4 0 .8-.4.8-1 0-.5 1.7-3.6 3.7-6.7 2.1-3.2 3.7-6 3.6-6.3 0-.3.8-1.4 1.9-2.5 1.9-2-1.9 7.4-10.4 25.5-5.1 10.7-7.8 16.9-7.7 17.7 0 .3-.3.9-.8 1.2-1.1.8-12.3 23.6-12.3 25 0 .6-.3 1.1-.7 1.1-.5 0-2.1 2.9-3.8 6.5-1.6 3.5-3.3 6.5-3.7 6.5-.5 0-.8.9-.8 1.9 0 1.1-.3 2.1-.7 2.3-.5.1-2.1 2.8-3.7 5.8-4.9 9.1-13.7 24-21.8 37-2.9 4.6-5.5 8.9-5.7 9.5-.2.5-.7 1.2-1 1.5-.4.3-2.6 3.6-5.1 7.5-2.5 3.8-4.7 7.2-5.1 7.5-.3.3-1.4 2-2.4 3.7-1.1 1.8-2.3 3.3-2.7 3.3-.4 0-.8.5-.8 1.2 0 .6-1.7 3.4-3.8 6.2-13.1 17.5-18.9 25.4-20.3 27.6-.9 1.4-2.5 3.4-3.5 4.5-1.1 1.1-4.6 5.4-7.8 9.5-3.3 4.1-6.2 7.7-6.5 8-.4.3-2.8 3.2-5.5 6.5s-5.4 6.4-6 7c-.6.5-2.6 2.8-4.5 5-14.8 17.5-53 55.8-71.6 71.6-2.1 1.9-4.6 4.1-5.5 4.9-9.1 8.5-42.1 34.4-56.5 44.5-3.8 2.7-7.2 5.2-7.5 5.5-.3.4-9 6.3-19.5 13.2-19.3 12.8-42.6 27-57 34.8-14.7 8-32.5 17.3-33.5 17.5-.3.1-5.7 2.7-12 5.7-24.8 12-72.6 32-79.4 33.4-1 .2-2.4.8-3.2 1.5-.8.6-1.4.9-1.4.6 0-.3-1.6.1-3.5.9s-3.5 1.3-3.5 1c0-.3 8.4-11.6 12.8-17.1 2.7-3.4 15.6-22.4 20.1-29.5 3-4.7 5.8-8.8 6.4-9.1.5-.3.9-1 .9-1.5 0-.9 4.8-9.5 5.8-10.4.7-.7 6.5-11.3 10.3-19 1.8-3.6 3.5-6.7 3.8-7 2.8-2.2 34.2-73 35.3-79.5.1-.6.4-1.5.8-2 .6-1.1 13.7-41 14.2-43.5.2-.8.6-2.2.9-3 1.7-4.2 9.3-36.5 10.3-44 .3-1.9.7-4.6.9-6 .3-1.4.7-5 1.1-8 .3-3 .8-6.4 1-7.5 1.2-6.5 2.4-41.9 1.5-43.4-.8-1.3-6.1-3.3-6.2-2.3 0 .4-.2 5.6-.3 11.7-.3 12.3-1.2 21.1-2.8 27-.6 2.2-1.2 5.1-1.4 6.4-1 7.7-14.5 45.5-22.6 62.9-2.1 4.6-3.8 8.7-3.8 9.3 0 .5-.5.9-1.1.9-.5 0-.8.4-.4.9.3.5-.1 1.5-.8 2.3-.7.7-1.4 1.7-1.5 2.1-.2 1.5-12.4 24.1-17.3 31.9-2.7 4.4-4.9 8.2-4.9 8.4 0 .3-1.3 2.5-3 4.9-1.6 2.4-3 4.8-3 5.4 0 .6-.4 1.1-.8 1.1-.5 0-1.5 1.2-2.3 2.7-1.8 3.5-19.3 29.3-21.2 31.3-.8.8-2 2.6-2.7 4-.7 1.4-1.8 2.9-2.5 3.5-.6.5-5.5 7-10.9 14.2-5.4 7.3-10.2 13.3-10.8 13.3-.5 0-.7.4-.4.9.4.5.3 1.1-.1 1.3-.5.1-2.6 2.5-4.8 5.3-5.7 7.2-6 7.5-20.1 24-7.1 8.2-13.8 15.9-14.9 17.1-1.1 1.2-6.7 7.2-12.5 13.4-17.8 19.1-35.7 36.7-54 53-13.2 11.7-15.9 14.7-16.6 18.6-1 5.5.4 16 2.7 20.2 4.5 8.1 9.2 11.2 17.9 11.9 5.4.5 7.7.1 19.5-3.2 3.3-.9 6.7-1.8 7.5-2 .8-.2 4.3-1.2 7.8-2.3 3.4-1.1 6.2-1.8 6.2-1.6 0 .3.9 0 2.1-.6 1.1-.6 2.8-1.3 3.7-1.5 2.3-.4 24.7-7.7 34.2-11 4.1-1.5 8.2-2.8 9-3 1.9-.5 32.9-12.2 35.5-13.5 1.1-.5 6.7-2.8 12.5-5.1s10.9-4.6 11.5-5.1c.5-.4 1.7-.8 2.7-.8 1 0 1.8-.5 1.8-1 0-.6.3-.9.8-.8.4.1 2.8-.8 5.4-2 4.7-2.2 9.8-4.4 10.8-4.7 4.4-1.1 61.9-31.2 75.4-39.5 3.7-2.2 6.8-4 7.1-4 .5 0 12.6-7.6 14.2-9 .7-.5 1.5-1 1.7-1 .3 0 3.2-1.7 6.3-3.7 3.2-2.1 6.6-4.2 7.5-4.8 6-3.5 26.8-18 26.8-18.7 0-.4.7-.8 1.5-.8s1.5-.5 1.5-1c0-.6.5-1 1-1 .9 0 11.2-7.2 13-9 .3-.3 3.2-2.5 6.5-5 5.2-3.8 11.7-8.9 19-14.9 1.1-.9 5.4-4.3 9.5-7.6s8.1-6.7 9-7.5c.9-.8 3.7-3.3 6.2-5.5s8.1-7.1 12.4-11c9.9-8.6 48.6-47.5 57.5-57.5 5.9-6.7 11.6-13.2 18.3-21 1.2-1.4 6.1-7.5 11-13.5 4.9-6.1 9.6-11.9 10.5-13 .9-1.1 2.7-3.6 4.1-5.5 1.3-1.9 2.7-3.7 3-4 .3-.3 2.3-3 4.5-6s4.3-5.7 4.7-5.8c.5-.2.8-1 .8-1.7s.3-1.5.8-1.7c.8-.4 3.8-4.5 14-19.8 4.2-6.3 8-11.7 8.5-11.8.4-.2.7-.8.7-1.2 0-.8 2.7-5.3 13.8-22.5.6-1.1 1.7-2.9 2.3-4 .5-1.1 2.1-3.8 3.4-6 1.4-2.2 3-5.1 3.7-6.5.7-1.4 1.5-2.7 1.9-3 .3-.3 1.2-1.9 2.1-3.5.8-1.7 3.6-6.8 6.2-11.5 7.4-13.2 28.6-56.7 36.9-75.5 9.8-22.5 24.4-58.8 26.1-65 .2-.6.6-1.7.9-2.5 1.4-3.1 11.8-34.4 15.2-45.7 6.3-20.8 7.6-25.1 8-26.9.2-1.1 1.3-5.4 2.5-9.6 1.1-4.3 2.3-8.7 2.5-9.8.2-1.2.7-3 1-4 .3-1 .7-2.7.9-3.7.2-1 1.4-5.9 2.6-10.8 1.2-5 2.4-9.9 2.6-11 .2-1.1 1.1-5.4 1.9-9.5.8-4.1 1.7-8.4 1.9-9.5.2-1.1 1.2-6.1 2.1-11 1-5 1.9-10.1 2-11.5.2-1.4.5-3.9.8-5.5.3-1.7.8-5 1.2-7.5.4-2.5.8-5.7 1.1-7.1.7-4.7 1.4-10.3 1.9-15.4.3-2.8.7-6.6 1-8.5.2-1.9.7-6.2 1.1-9.5.3-3.3.8-6.3 1-6.7.3-.5 0-.8-.6-.8-.7 0-.8-.6-.2-1.8.5-.9 1-4.2 1.2-7.2.1-3 .4-7.5.6-10 .8-9.3 1.7-62 1-62-.3 0-.6.3-.7.7z"/><path d="M538.8 106.4c-.1.2-4.8.6-10.3.9-16.5 1-25.8 2.9-40.2 8.4-8.4 3.2-23.7 11.2-28 14.7-14.5 11.7-21.6 19.1-28.3 29.3-7.6 11.8-14.7 27.9-16.6 37.8-.1.5-.6 3.5-1.3 6.5-4.9 24.7-2.1 47.6 8.4 69.5 1.6 3.3 3.3 6.1 3.7 6.3.4.2.8.8.8 1.3 0 .8 4.7 8.7 6 9.9.3.3 2.2 2.6 4.2 5.1 4.6 5.8 13.5 14.7 17.2 17.4 1.6 1.1 3.3 2.5 4 3 1.7 1.7 7.8 5.9 10.6 7.4 12.3 6.8 20.8 10.7 25.5 11.7.6.1 3 .9 5.5 1.7 2.5.8 6.8 1.8 9.5 2.3 2.8.4 5.9.8 7 1 5.8.9 22.7.3 31.2-1.1 1.8-.3 5-.8 7.1-1.1 2-.3 4-.8 4.5-1.1.4-.2 2-.6 3.5-.9 1.5-.3 3.4-.7 4.2-1.1.8-.3 2.1-.7 2.8-.9.8-.1 2.1-.6 3-1 .9-.4 2.3-.8 3-1 3.7-.7 26.6-12.9 29.8-15.9.7-.5 2.5-1.9 4-3 4.7-3.3 17.8-16.6 22.6-23 7.1-9.4 16.5-27.4 18.3-35 .1-.6.4-1.7.8-2.5.7-2 2.6-9.7 3.2-13.5 1.6-8.9 1.8-11.6 1.8-18.5 0-8.9-1.5-18.7-4.3-29-1.1-4.1-2.2-8.2-2.5-9.1-.2-.9-.8-2.5-1.4-3.5-.5-1.1-2.2-4.5-3.6-7.8-2.5-5.4-8.5-15.5-10.9-18.3-2.7-3-3.6-4.3-3.6-4.7 0-1-12.6-12.9-18-17-18.3-14-40.2-22.2-64.5-24.1-3.3-.3-6.5-.7-7.2-.9-.6-.3-1.3-.3-1.5-.2zm10.2 21c7.2 1.1 9.5 1.8 17.1 4.7 7.4 2.8 19.6 9.9 21.1 12.3.4.6.8.8.8.4 0-1.7 19 18.8 19 20.6 0 .4.8 1.5 1.8 2.6 2.8 3.1 9.8 17.7 12.5 26.1 4 12.4 5.7 22.6 5.2 32.2-.2 4.3-.6 8.6-.9 9.5-.3.9-.7 3.4-1.1 5.6-1 7.3-7.9 25.8-10.8 29.5-.6.7-1.2 2-1.3 2.9-.2.8-.6 1.8-1.1 2.1-.4.3-2.2 2.6-3.8 5.1-4.5 6.7-19.1 21-21.5 21-.6 0-1 .4-1 .9s-.8 1.1-1.7 1.5c-1 .3-3.4 1.5-5.3 2.7-3.7 2.3-17 7.5-21.7 8.4-1.5.3-3.9.8-5.3 1.1-5.6 1.2-19.9 1.9-26 1.2-8-.9-17.1-2.9-18.5-3.9-.6-.4-2.2-1-3.6-1.2-9.3-1.7-31.5-19.1-39.7-31.2-1.5-2.2-2.9-4.2-3.2-4.5-2.3-2.3-11-20.4-12.5-26-.1-.3-.5-1.2-.8-2-1.5-3.6-3.8-14.4-4.4-20.7-1.5-15.3-.3-28.5 3.4-38.3.3-.8.7-2 .8-2.5 1.3-5.3 10.1-20.5 15.8-27.1 3.9-4.7 11.7-11.7 16.5-15.1 2.6-1.8 5.2-3.6 5.8-4.1 1.8-1.6 17.8-9 21.9-10.2 8.7-2.5 11.2-3.1 16.5-3.6 3-.3 5.6-.7 5.7-.8.5-.4 16.6.2 20.3.8z"/></svg>