<?xml version="1.0" encoding="utf-8"?>
<!-- Generator: Adobe Illustrator 16.0.0, SVG Export Plug-In . SVG Version: 6.00 Build 0)  -->
<!DOCTYPE svg PUBLIC "-//W3C//DTD SVG 1.1//EN" "http://www.w3.org/Graphics/SVG/1.1/DTD/svg11.dtd">
<svg version="1.1" id="Layer_1" xmlns="http://www.w3.org/2000/svg" xmlns:xlink="http://www.w3.org/1999/xlink" x="0px" y="0px"
	 width="103.152px" height="110.455px" viewBox="287.963 149.772 103.152 110.455"
	 enable-background="new 287.963 149.772 103.152 110.455" xml:space="preserve">
<g>
	<path fill="none" stroke="#000000" stroke-miterlimit="10" d="M339.541,222.136"/>
	<g>
		<path fill="none" stroke="#000000" stroke-miterlimit="10" d="M306.905,258.265"/>
		<path d="M391.094,153.088c0-1.51-0.015-3.73-0.039-3.249v0.014c-1.002,14.631-5.724,30.796-15.316,42.051
			c-11.876,13.934-27.141,15.024-41.961,10.419c-0.152-0.052-0.317-0.089-0.47-0.142c-0.686-0.216-1.396-0.456-2.119-0.735
			c0,0.013,0.012,0.013,0.012,0.025c-14.896-5.291-29.109-15.949-38.677-24.591c-0.303-0.395-0.634-0.456,0.014-0.279
			c13.45,3.756,28.042,9.238,36.417,20.962c0.103,0.139,0.203,0.278,0.292,0.431c1.027,0.433,2.246,0.888,3.4,1.27
			c-0.432-1.638-1.002-3.198-1.688-4.645c-6.662-14.085-23.804-22.878-38.409-24.362c-0.508-0.051-3.262,0.039-4.072,1.853
			c-1.206,2.373,0,4.124,0.646,4.708c10.305,9.313,26.204,22.116,42.623,28.602c0.355,0.139,0.672,0.267,1.002,0.394
			c0.368,0.126,0.725,0.265,1.08,0.394c0.126,0.051,0.253,0.1,0.38,0.14c15.087,5.354,30.403,4.987,42.013-8.667
			c1.954-2.285,3.68-4.812,5.216-7.5c-1.638,3.933-3.478,7.791-5.495,11.534c-12.689,23.613-33.308,40.313-57.962,48.866
			c6.991-8.757,11.965-19.489,14.706-30.302c0.889-3.49,1.332-7.411,1.269-11.345c-0.279-0.089-0.571-0.189-0.862-0.291
			c0.075,1.763-0.051,3.793-0.406,5.291c-0.56,2.348-1.37,4.645-2.296,6.877c-4.835,11.711-16.688,25.999-26.306,34.185
			c-0.023,0.013-0.012,0.025-0.023,0.05c-0.254,0.203-0.458,0.432-0.61,0.698c-0.47,0.812,0,2.449,0,2.449
			c0.673,1.892,2.043,2.372,4.062,1.827c30.517-8.184,55.526-26.685,70.067-55.083c7.563-14.745,13.006-32.115,13.477-48.878
			c0-0.114,0.013-0.229,0.024-0.342C391.131,154.927,391.119,154.002,391.094,153.088z"/>
		<path d="M363.001,177.789c-0.373,6.921-5.193,12.292-12.482,11.9c-6.313-0.341-10.466-6.316-10.781-12.143
			c-0.374-6.957,5.829-12.258,12.483-11.9C358.533,165.987,362.686,171.963,363.001,177.789c0.107,2.008,3.828,1.494,3.734-0.241
			c-1.048-19.463-29.702-18.923-30.733,0.241c-0.434,8.039,7.326,15.22,15.225,14.794c8.469-0.456,15.045-6.417,15.51-15.036
			C366.844,175.554,363.095,176.031,363.001,177.789z"/>
		<line fill="none" x1="329.306" y1="200.765" x2="329.306" y2="200.765"/>
		<line fill="none" x1="335.985" y1="202.966" x2="335.985" y2="202.966"/>
	</g>
</g>
</svg>
