<?xml version="1.0" standalone="no"?>
<!DOCTYPE svg PUBLIC "-//W3C//DTD SVG 20010904//EN"
 "http://www.w3.org/TR/2001/REC-SVG-20010904/DTD/svg10.dtd">
<svg version="1.0" xmlns="http://www.w3.org/2000/svg"
 width="880.000000pt" height="880.000000pt" viewBox="0 0 880.000000 880.000000"
 preserveAspectRatio="xMidYMid meet">
<metadata>
Created by potrace 1.14, written by Peter Selinger 2001-2017
</metadata>
<g transform="translate(0.000000,880.000000) scale(0.100000,-0.100000)"
fill="#000000" stroke="none">
<path d="M8499 8693 c-4 -32 -7 -66 -10 -115 -2 -32 -6 -58 -9 -58 -3 0 -5
-15 -5 -32 -1 -41 -14 -147 -26 -212 -5 -26 -7 -52 -4 -56 3 -5 1 -11 -5 -15
-6 -4 -8 -10 -6 -14 3 -3 -1 -38 -9 -76 -7 -39 -15 -86 -18 -105 -3 -19 -8
-48 -11 -65 -16 -81 -19 -101 -22 -110 -1 -5 -5 -28 -9 -50 -4 -22 -10 -44
-13 -50 -3 -5 -7 -16 -8 -25 -9 -56 -14 -82 -18 -89 -3 -4 -8 -23 -11 -42 -3
-19 -11 -52 -17 -74 -6 -22 -12 -45 -14 -51 -4 -20 -35 -128 -41 -144 -3 -8
-7 -22 -8 -30 -3 -19 -96 -302 -103 -315 -4 -5 -7 -17 -9 -25 -1 -8 -8 -30
-17 -50 -8 -19 -31 -78 -51 -130 -21 -52 -42 -106 -48 -120 -6 -14 -11 -27
-11 -30 -1 -5 -14 -33 -101 -215 -32 -66 -56 -122 -55 -124 1 -2 -2 -7 -7 -10
-4 -3 -21 -31 -38 -61 -54 -102 -70 -129 -139 -242 -38 -62 -78 -123 -89 -135
-11 -13 -16 -23 -11 -23 5 0 4 -4 -2 -8 -6 -4 -26 -29 -44 -57 -194 -287 -529
-631 -795 -818 -44 -31 -84 -60 -90 -65 -43 -35 -368 -206 -407 -214 -7 -2
-15 -6 -18 -9 -5 -6 -172 -67 -255 -93 -54 -17 -258 -67 -290 -71 -11 -1 -54
-8 -95 -14 -187 -29 -388 -38 -605 -26 -117 6 -145 8 -240 20 -33 4 -71 8 -85
10 -37 5 -99 15 -150 25 -56 12 -96 20 -135 26 -16 3 -37 8 -45 11 -8 3 -22 7
-30 8 -26 3 -211 53 -300 80 -47 15 -89 28 -95 29 -5 2 -17 6 -25 9 -35 13
-166 59 -175 61 -36 8 -330 130 -480 199 -161 75 -498 249 -503 260 -2 4 -8 7
-12 7 -5 0 -79 42 -165 93 -86 50 -165 96 -176 102 -10 5 -19 13 -19 17 0 5
-6 8 -12 8 -12 0 -86 46 -115 70 -7 5 -24 15 -38 22 -14 6 -25 15 -25 20 0 4
-7 8 -15 8 -8 0 -15 5 -15 10 0 6 -6 10 -13 10 -7 0 -23 9 -35 20 -12 11 -24
20 -27 20 -4 0 -72 46 -152 103 -80 56 -153 107 -162 112 -9 6 -18 12 -21 15
-3 3 -57 43 -120 90 -63 47 -117 87 -120 90 -3 3 -32 25 -65 50 -57 42 -146
113 -171 135 -6 6 -26 21 -44 35 -18 14 -63 50 -99 80 -36 31 -77 64 -90 75
-13 11 -31 27 -40 35 -10 8 -44 37 -76 64 -33 28 -67 57 -76 65 -8 9 -43 40
-77 70 -34 30 -62 61 -62 69 0 7 5 10 11 7 9 -6 66 -24 294 -91 28 -8 57 -16
65 -18 159 -43 752 -260 915 -336 256 -118 605 -301 613 -322 2 -4 8 -8 13 -8
29 0 366 -242 509 -366 113 -98 360 -355 360 -375 0 -5 4 -9 8 -9 5 0 39 -41
76 -90 71 -96 79 -101 221 -153 87 -32 115 -40 115 -33 0 32 -98 285 -156 403
-60 122 -244 421 -273 443 -3 3 -37 43 -75 90 -73 89 -297 317 -380 385 -70
58 -82 68 -103 85 -79 65 -356 260 -369 260 -3 0 -18 8 -32 19 -102 72 -423
235 -621 316 -105 42 -327 122 -361 130 -8 2 -16 4 -17 5 -2 2 -7 4 -13 5 -5
1 -11 3 -12 5 -2 1 -10 3 -18 5 -8 1 -35 9 -60 16 -25 7 -47 13 -50 14 -3 0
-57 14 -120 29 -63 16 -124 30 -135 32 -11 1 -20 3 -20 4 0 1 -9 3 -20 5 -11
2 -36 6 -55 9 -19 3 -46 8 -60 11 -24 5 -89 15 -140 20 -14 2 -25 4 -25 5 0 9
-167 5 -208 -4 -113 -27 -173 -76 -211 -174 -47 -121 -22 -247 66 -334 47 -46
171 -157 221 -198 17 -14 40 -34 51 -45 12 -11 64 -56 116 -100 52 -44 100
-85 106 -91 6 -5 31 -26 54 -45 23 -18 47 -39 54 -44 27 -25 220 -181 234
-190 9 -5 24 -17 32 -26 8 -8 74 -59 145 -114 72 -54 135 -104 141 -112 6 -7
15 -13 20 -13 5 0 20 -10 34 -23 14 -12 35 -29 47 -37 11 -8 74 -54 140 -101
65 -47 150 -107 188 -134 39 -27 71 -52 73 -57 2 -4 9 -8 15 -9 7 0 39 -20 72
-44 33 -24 75 -52 93 -61 17 -9 32 -20 32 -25 0 -5 4 -9 10 -9 5 0 49 -26 98
-58 49 -32 136 -87 193 -121 57 -35 132 -80 166 -101 35 -21 63 -36 63 -33 0
3 8 -1 18 -9 9 -8 42 -29 72 -45 30 -17 73 -40 95 -53 84 -48 455 -230 580
-284 72 -31 139 -61 150 -66 47 -21 257 -100 335 -125 47 -16 94 -32 105 -36
28 -11 94 -31 108 -33 7 -1 17 -4 22 -7 6 -3 71 -21 145 -38 74 -18 149 -37
166 -42 17 -5 42 -9 56 -9 13 0 28 -3 31 -6 4 -4 19 -8 34 -9 26 -3 55 -8 123
-20 14 -2 48 -7 75 -10 28 -3 66 -7 85 -10 167 -21 544 -22 656 -1 10 2 44 7
75 10 63 7 57 6 189 35 80 17 126 30 275 75 82 25 315 127 315 138 0 4 6 8 13
8 16 0 214 115 243 141 11 11 23 19 27 19 4 0 15 7 24 14 10 8 41 32 69 53 99
74 139 109 274 243 119 118 242 257 305 344 11 15 41 56 66 89 25 34 54 77 64
95 11 17 23 32 27 32 4 0 8 4 8 10 0 5 17 36 37 67 21 32 37 60 36 63 0 3 8
14 19 25 19 20 -19 -74 -104 -255 -51 -107 -78 -169 -77 -177 0 -3 -3 -9 -8
-12 -11 -8 -123 -236 -123 -250 0 -6 -3 -11 -7 -11 -5 0 -21 -29 -38 -65 -16
-35 -33 -65 -37 -65 -5 0 -8 -9 -8 -19 0 -11 -3 -21 -7 -23 -5 -1 -21 -28 -37
-58 -49 -91 -137 -240 -218 -370 -29 -46 -55 -89 -57 -95 -2 -5 -7 -12 -10
-15 -4 -3 -26 -36 -51 -75 -25 -38 -47 -72 -51 -75 -3 -3 -14 -20 -24 -37 -11
-18 -23 -33 -27 -33 -4 0 -8 -5 -8 -12 0 -6 -17 -34 -38 -62 -131 -175 -189
-254 -203 -276 -9 -14 -25 -34 -35 -45 -11 -11 -46 -54 -78 -95 -33 -41 -62
-77 -65 -80 -4 -3 -28 -32 -55 -65 -27 -33 -54 -64 -60 -70 -6 -5 -26 -28 -45
-50 -148 -175 -530 -558 -716 -716 -21 -19 -46 -41 -55 -49 -91 -85 -421 -344
-565 -445 -38 -27 -72 -52 -75 -55 -3 -4 -90 -63 -195 -132 -193 -128 -426
-270 -570 -348 -147 -80 -325 -173 -335 -175 -3 -1 -57 -27 -120 -57 -248
-120 -726 -320 -794 -334 -10 -2 -24 -8 -32 -15 -8 -6 -14 -9 -14 -6 0 3 -16
-1 -35 -9 -19 -8 -35 -13 -35 -10 0 3 84 116 128 171 27 34 156 224 201 295
30 47 58 88 64 91 5 3 9 10 9 15 0 9 48 95 58 104 7 7 65 113 103 190 18 36
35 67 38 70 28 22 342 730 353 795 1 6 4 15 8 20 6 11 137 410 142 435 2 8 6
22 9 30 17 42 93 365 103 440 3 19 7 46 9 60 3 14 7 50 11 80 3 30 8 64 10 75
12 65 24 419 15 434 -8 13 -61 33 -62 23 0 -4 -2 -56 -3 -117 -3 -123 -12
-211 -28 -270 -6 -22 -12 -51 -14 -64 -10 -77 -145 -455 -226 -629 -21 -46
-38 -87 -38 -93 0 -5 -5 -9 -11 -9 -5 0 -8 -4 -4 -9 3 -5 -1 -15 -8 -23 -7 -7
-14 -17 -15 -21 -2 -15 -124 -241 -173 -319 -27 -44 -49 -82 -49 -84 0 -3 -13
-25 -30 -49 -16 -24 -30 -48 -30 -54 0 -6 -4 -11 -8 -11 -5 0 -15 -12 -23 -27
-18 -35 -193 -293 -212 -313 -8 -8 -20 -26 -27 -40 -7 -14 -18 -29 -25 -35 -6
-5 -55 -70 -109 -142 -54 -73 -102 -133 -108 -133 -5 0 -7 -4 -4 -9 4 -5 3
-11 -1 -13 -5 -1 -26 -25 -48 -53 -57 -72 -60 -75 -201 -240 -71 -82 -138
-159 -149 -171 -11 -12 -67 -72 -125 -134 -178 -191 -357 -367 -540 -530 -132
-117 -159 -147 -166 -186 -10 -55 4 -160 27 -202 45 -81 92 -112 179 -119 54
-5 77 -1 195 32 33 9 67 18 75 20 8 2 43 12 78 23 34 11 62 18 62 16 0 -3 9 0
21 6 11 6 28 13 37 15 23 4 247 77 342 110 41 15 82 28 90 30 19 5 329 122
355 135 11 5 67 28 125 51 58 23 109 46 115 51 5 4 17 8 27 8 10 0 18 5 18 10
0 6 3 9 8 8 4 -1 28 8 54 20 47 22 98 44 108 47 44 11 619 312 754 395 37 22
68 40 71 40 5 0 126 76 142 90 7 5 15 10 17 10 3 0 32 17 63 37 32 21 66 42
75 48 60 35 268 180 268 187 0 4 7 8 15 8 8 0 15 5 15 10 0 6 5 10 10 10 9 0
112 72 130 90 3 3 32 25 65 50 52 38 117 89 190 149 11 9 54 43 95 76 41 33
81 67 90 75 9 8 37 33 62 55 25 22 81 71 124 110 99 86 486 475 575 575 59 67
116 132 183 210 12 14 61 75 110 135 49 61 96 119 105 130 9 11 27 36 41 55
13 19 27 37 30 40 3 3 23 30 45 60 22 30 43 57 47 58 5 2 8 10 8 17 0 7 3 15
8 17 8 4 38 45 140 198 42 63 80 117 85 118 4 2 7 8 7 12 0 8 27 53 138 225 6
11 17 29 23 40 5 11 21 38 34 60 14 22 30 51 37 65 7 14 15 27 19 30 3 3 12
19 21 35 8 17 36 68 62 115 74 132 286 567 369 755 98 225 244 588 261 650 2
6 6 17 9 25 14 31 118 344 152 457 63 208 76 251 80 269 2 11 13 54 25 96 11
43 23 87 25 98 2 12 7 30 10 40 3 10 7 27 9 37 2 10 14 59 26 108 12 50 24 99
26 110 2 11 11 54 19 95 8 41 17 84 19 95 2 11 12 61 21 110 10 50 19 101 20
115 2 14 5 39 8 55 3 17 8 50 12 75 4 25 8 57 11 71 7 47 14 103 19 154 3 28
7 66 10 85 2 19 7 62 11 95 3 33 8 63 10 67 3 5 0 8 -6 8 -7 0 -8 6 -2 18 5 9
10 42 12 72 1 30 4 75 6 100 8 93 17 620 10 620 -3 0 -6 -3 -7 -7z"/>
<path d="M5388 7736 c-1 -2 -48 -6 -103 -9 -165 -10 -258 -29 -402 -84 -84
-32 -237 -112 -280 -147 -145 -117 -216 -191 -283 -293 -76 -118 -147 -279
-166 -378 -1 -5 -6 -35 -13 -65 -49 -247 -21 -476 84 -695 16 -33 33 -61 37
-63 4 -2 8 -8 8 -13 0 -8 47 -87 60 -99 3 -3 22 -26 42 -51 46 -58 135 -147
172 -174 16 -11 33 -25 40 -30 17 -17 78 -59 106 -74 123 -68 208 -107 255
-117 6 -1 30 -9 55 -17 25 -8 68 -18 95 -23 28 -4 59 -8 70 -10 58 -9 227 -3
312 11 18 3 50 8 71 11 20 3 40 8 45 11 4 2 20 6 35 9 15 3 34 7 42 11 8 3 21
7 28 9 8 1 21 6 30 10 9 4 23 8 30 10 37 7 266 129 298 159 7 5 25 19 40 30
47 33 178 166 226 230 71 94 165 274 183 350 1 6 4 17 8 25 7 20 26 97 32 135
16 89 18 116 18 185 0 89 -15 187 -43 290 -11 41 -22 82 -25 91 -2 9 -8 25
-14 35 -5 11 -22 45 -36 78 -25 54 -85 155 -109 183 -27 30 -36 43 -36 47 0
10 -126 129 -180 170 -183 140 -402 222 -645 241 -33 3 -65 7 -72 9 -6 3 -13
3 -15 2z m102 -210 c72 -11 95 -18 171 -47 74 -28 196 -99 211 -123 4 -6 8 -8
8 -4 0 17 190 -188 190 -206 0 -4 8 -15 18 -26 28 -31 98 -177 125 -261 40
-124 57 -226 52 -322 -2 -43 -6 -86 -9 -95 -3 -9 -7 -34 -11 -56 -10 -73 -79
-258 -108 -295 -6 -7 -12 -20 -13 -29 -2 -8 -6 -18 -11 -21 -4 -3 -22 -26 -38
-51 -45 -67 -191 -210 -215 -210 -6 0 -10 -4 -10 -9 0 -5 -8 -11 -17 -15 -10
-3 -34 -15 -53 -27 -37 -23 -170 -75 -217 -84 -15 -3 -39 -8 -53 -11 -56 -12
-199 -19 -260 -12 -80 9 -171 29 -185 39 -6 4 -22 10 -36 12 -93 17 -315 191
-397 312 -15 22 -29 42 -32 45 -23 23 -110 204 -125 260 -1 3 -5 12 -8 20 -15
36 -38 144 -44 207 -15 153 -3 285 34 383 3 8 7 20 8 25 13 53 101 205 158
271 39 47 117 117 165 151 26 18 52 36 58 41 18 16 178 90 219 102 87 25 112
31 165 36 30 3 56 7 57 8 5 4 166 -2 203 -8z"/>
</g>
</svg>
